<svg id="mermaid-svg" width="100%" xmlns="http://www.w3.org/2000/svg" class="flowchart" style="max-width: 614.3980102539062px;" viewBox="0 0 614.3980102539062 1580.953125" role="graphics-document document" aria-roledescription="flowchart-v2" xmlns:xlink="http://www.w3.org/1999/xlink"><style xmlns="http://www.w3.org/1999/xhtml">@import url("https://cdnjs.cloudflare.com/ajax/libs/font-awesome/6.7.2/css/all.min.css");</style><style>#mermaid-svg{font-family:"trebuchet ms",verdana,arial,sans-serif;font-size:16px;fill:#000000;}@keyframes edge-animation-frame{from{stroke-dashoffset:0;}}@keyframes dash{to{stroke-dashoffset:0;}}#mermaid-svg .edge-animation-slow{stroke-dasharray:9,5!important;stroke-dashoffset:900;animation:dash 50s linear infinite;stroke-linecap:round;}#mermaid-svg .edge-animation-fast{stroke-dasharray:9,5!important;stroke-dashoffset:900;animation:dash 20s linear infinite;stroke-linecap:round;}#mermaid-svg .error-icon{fill:#552222;}#mermaid-svg .error-text{fill:#552222;stroke:#552222;}#mermaid-svg .edge-thickness-normal{stroke-width:1px;}#mermaid-svg .edge-thickness-thick{stroke-width:3.5px;}#mermaid-svg .edge-pattern-solid{stroke-dasharray:0;}#mermaid-svg .edge-thickness-invisible{stroke-width:0;fill:none;}#mermaid-svg .edge-pattern-dashed{stroke-dasharray:3;}#mermaid-svg .edge-pattern-dotted{stroke-dasharray:2;}#mermaid-svg .marker{fill:#666;stroke:#666;}#mermaid-svg .marker.cross{stroke:#666;}#mermaid-svg svg{font-family:"trebuchet ms",verdana,arial,sans-serif;font-size:16px;}#mermaid-svg p{margin:0;}#mermaid-svg .label{font-family:"trebuchet ms",verdana,arial,sans-serif;color:#000000;}#mermaid-svg .cluster-label text{fill:#333;}#mermaid-svg .cluster-label span{color:#333;}#mermaid-svg .cluster-label span p{background-color:transparent;}#mermaid-svg .label text,#mermaid-svg span{fill:#000000;color:#000000;}#mermaid-svg .node rect,#mermaid-svg .node circle,#mermaid-svg .node ellipse,#mermaid-svg .node polygon,#mermaid-svg .node path{fill:#eee;stroke:#999;stroke-width:1px;}#mermaid-svg .rough-node .label text,#mermaid-svg .node .label text,#mermaid-svg .image-shape .label,#mermaid-svg .icon-shape .label{text-anchor:middle;}#mermaid-svg .node .katex path{fill:#000;stroke:#000;stroke-width:1px;}#mermaid-svg .rough-node .label,#mermaid-svg .node .label,#mermaid-svg .image-shape .label,#mermaid-svg .icon-shape .label{text-align:center;}#mermaid-svg .node.clickable{cursor:pointer;}#mermaid-svg .root .anchor path{fill:#666!important;stroke-width:0;stroke:#666;}#mermaid-svg .arrowheadPath{fill:#333333;}#mermaid-svg .edgePath .path{stroke:#666;stroke-width:2.0px;}#mermaid-svg .flowchart-link{stroke:#666;fill:none;}#mermaid-svg .edgeLabel{background-color:white;text-align:center;}#mermaid-svg .edgeLabel p{background-color:white;}#mermaid-svg .edgeLabel rect{opacity:0.5;background-color:white;fill:white;}#mermaid-svg .labelBkg{background-color:rgba(255, 255, 255, 0.5);}#mermaid-svg .cluster rect{fill:hsl(0, 0%, 98.9215686275%);stroke:#707070;stroke-width:1px;}#mermaid-svg .cluster text{fill:#333;}#mermaid-svg .cluster span{color:#333;}#mermaid-svg div.mermaidTooltip{position:absolute;text-align:center;max-width:200px;padding:2px;font-family:"trebuchet ms",verdana,arial,sans-serif;font-size:12px;background:hsl(-160, 0%, 93.3333333333%);border:1px solid #707070;border-radius:2px;pointer-events:none;z-index:100;}#mermaid-svg .flowchartTitleText{text-anchor:middle;font-size:18px;fill:#000000;}#mermaid-svg rect.text{fill:none;stroke-width:0;}#mermaid-svg .icon-shape,#mermaid-svg .image-shape{background-color:white;text-align:center;}#mermaid-svg .icon-shape p,#mermaid-svg .image-shape p{background-color:white;padding:2px;}#mermaid-svg .icon-shape rect,#mermaid-svg .image-shape rect{opacity:0.5;background-color:white;fill:white;}#mermaid-svg :root{--mermaid-font-family:"trebuchet ms",verdana,arial,sans-serif;}</style><g><marker id="mermaid-svg_flowchart-v2-pointEnd" class="marker flowchart-v2" viewBox="0 0 10 10" refX="5" refY="5" markerUnits="userSpaceOnUse" markerWidth="8" markerHeight="8" orient="auto"><path d="M 0 0 L 10 5 L 0 10 z" class="arrowMarkerPath" style="stroke-width: 1; stroke-dasharray: 1, 0;"/></marker><marker id="mermaid-svg_flowchart-v2-pointStart" class="marker flowchart-v2" viewBox="0 0 10 10" refX="4.5" refY="5" markerUnits="userSpaceOnUse" markerWidth="8" markerHeight="8" orient="auto"><path d="M 0 5 L 10 10 L 10 0 z" class="arrowMarkerPath" style="stroke-width: 1; stroke-dasharray: 1, 0;"/></marker><marker id="mermaid-svg_flowchart-v2-circleEnd" class="marker flowchart-v2" viewBox="0 0 10 10" refX="11" refY="5" markerUnits="userSpaceOnUse" markerWidth="11" markerHeight="11" orient="auto"><circle cx="5" cy="5" r="5" class="arrowMarkerPath" style="stroke-width: 1; stroke-dasharray: 1, 0;"/></marker><marker id="mermaid-svg_flowchart-v2-circleStart" class="marker flowchart-v2" viewBox="0 0 10 10" refX="-1" refY="5" markerUnits="userSpaceOnUse" markerWidth="11" markerHeight="11" orient="auto"><circle cx="5" cy="5" r="5" class="arrowMarkerPath" style="stroke-width: 1; stroke-dasharray: 1, 0;"/></marker><marker id="mermaid-svg_flowchart-v2-crossEnd" class="marker cross flowchart-v2" viewBox="0 0 11 11" refX="12" refY="5.2" markerUnits="userSpaceOnUse" markerWidth="11" markerHeight="11" orient="auto"><path d="M 1,1 l 9,9 M 10,1 l -9,9" class="arrowMarkerPath" style="stroke-width: 2; stroke-dasharray: 1, 0;"/></marker><marker id="mermaid-svg_flowchart-v2-crossStart" class="marker cross flowchart-v2" viewBox="0 0 11 11" refX="-1" refY="5.2" markerUnits="userSpaceOnUse" markerWidth="11" markerHeight="11" orient="auto"><path d="M 1,1 l 9,9 M 10,1 l -9,9" class="arrowMarkerPath" style="stroke-width: 2; stroke-dasharray: 1, 0;"/></marker><g class="root"><g class="clusters"><g class="cluster " id="Process" data-look="classic"><rect style="" x="12.83984375" y="1036.03125" width="436.875" height="432.921875"/><g class="cluster-label " transform="translate(202.37890625, 1036.03125)"><foreignObject width="57.796875" height="24"><div xmlns="http://www.w3.org/1999/xhtml" style="display: table-cell; white-space: nowrap; line-height: 1.5; max-width: 200px; text-align: center;"><span class="nodeLabel "><p>Process</p></span></div></foreignObject></g></g><g class="cluster " id="Search" data-look="classic"><rect style="" x="130.6953125" y="442.03125" width="455.703125" height="544"/><g class="cluster-label " transform="translate(333.1953125, 442.03125)"><foreignObject width="50.703125" height="24"><div xmlns="http://www.w3.org/1999/xhtml" style="display: table-cell; white-space: nowrap; line-height: 1.5; max-width: 200px; text-align: center;"><span class="nodeLabel "><p>Search</p></span></div></foreignObject></g></g><g class="cluster " id="Preprocess" data-look="classic"><rect style="" x="8" y="112" width="413.171875" height="256.03125"/><g class="cluster-label " transform="translate(174.125, 112)"><foreignObject width="80.921875" height="24"><div xmlns="http://www.w3.org/1999/xhtml" style="display: table-cell; white-space: nowrap; line-height: 1.5; max-width: 200px; text-align: center;"><span class="nodeLabel "><p>Preprocess</p></span></div></foreignObject></g></g></g><g class="edgePaths"><path d="M300.33,62L294.24,66.167C288.151,70.333,275.972,78.667,269.882,87C263.793,95.333,263.793,103.667,263.793,111.333C263.793,119,263.793,126,263.793,129.5L263.793,133" id="L_START_R1_0" class=" edge-thickness-normal edge-pattern-solid edge-thickness-normal edge-pattern-solid flowchart-link" style="" marker-end="url(#mermaid-svg_flowchart-v2-pointEnd)"/><path d="M263.793,191L263.793,195.167C263.793,199.333,263.793,207.667,263.863,215.417C263.933,223.167,264.074,230.334,264.144,233.917L264.215,237.501" id="L_R1_R2_0" class=" edge-thickness-normal edge-pattern-solid edge-thickness-normal edge-pattern-solid flowchart-link" style="" marker-end="url(#mermaid-svg_flowchart-v2-pointEnd)"/><path d="M291.565,316.26L301.487,324.888C311.41,333.517,331.256,350.774,341.179,365.569C351.102,380.365,351.102,392.698,351.102,405.031C351.102,417.365,351.102,429.698,351.102,439.365C351.102,449.031,351.102,456.031,351.102,459.531L351.102,463.031" id="L_R2_S1_0" class=" edge-thickness-normal edge-pattern-solid edge-thickness-normal edge-pattern-solid flowchart-link" style="" marker-end="url(#mermaid-svg_flowchart-v2-pointEnd)"/><path d="M351.102,521.031L351.102,525.198C351.102,529.365,351.102,537.698,351.102,545.365C351.102,553.031,351.102,560.031,351.102,563.531L351.102,567.031" id="L_S1_S2_0" class=" edge-thickness-normal edge-pattern-solid edge-thickness-normal edge-pattern-solid flowchart-link" style="" marker-end="url(#mermaid-svg_flowchart-v2-pointEnd)"/><path d="M306.986,625.031L296.91,631.198C286.834,637.365,266.683,649.698,256.607,666.531C246.531,683.365,246.531,704.698,246.531,724.031C246.531,743.365,246.531,760.698,246.531,772.865C246.531,785.031,246.531,792.031,246.531,795.531L246.531,799.031" id="L_S2_S3_0" class=" edge-thickness-normal edge-pattern-solid edge-thickness-normal edge-pattern-solid flowchart-link" style="" marker-end="url(#mermaid-svg_flowchart-v2-pointEnd)"/><path d="M246.531,857.031L246.531,861.198C246.531,865.365,246.531,873.698,254.313,881.734C262.095,889.771,277.66,897.511,285.442,901.38L293.224,905.25" id="L_S3_S6_0" class=" edge-thickness-normal edge-pattern-solid edge-thickness-normal edge-pattern-solid flowchart-link" style="" marker-end="url(#mermaid-svg_flowchart-v2-pointEnd)"/><path d="M395.217,625.031L405.293,631.198C415.369,637.365,435.52,649.698,445.596,661.365C455.672,673.031,455.672,684.031,455.672,689.531L455.672,695.031" id="L_S2_S4_0" class=" edge-thickness-normal edge-pattern-solid edge-thickness-normal edge-pattern-solid flowchart-link" style="" marker-end="url(#mermaid-svg_flowchart-v2-pointEnd)"/><path d="M455.672,753.031L455.672,757.198C455.672,761.365,455.672,769.698,455.672,777.365C455.672,785.031,455.672,792.031,455.672,795.531L455.672,799.031" id="L_S4_S5_0" class=" edge-thickness-normal edge-pattern-solid edge-thickness-normal edge-pattern-solid flowchart-link" style="" marker-end="url(#mermaid-svg_flowchart-v2-pointEnd)"/><path d="M455.672,857.031L455.672,861.198C455.672,865.365,455.672,873.698,447.89,881.734C440.108,889.771,424.543,897.511,416.761,901.38L408.979,905.25" id="L_S5_S6_0" class=" edge-thickness-normal edge-pattern-solid edge-thickness-normal edge-pattern-solid flowchart-link" style="" marker-end="url(#mermaid-svg_flowchart-v2-pointEnd)"/><path d="M228.682,307.92L205.247,317.939C181.812,327.957,134.941,347.994,111.506,364.179C88.07,380.365,88.07,392.698,88.07,405.031C88.07,417.365,88.07,429.698,88.07,444.531C88.07,459.365,88.07,476.698,88.07,494.031C88.07,511.365,88.07,528.698,88.07,546.031C88.07,563.365,88.07,580.698,88.07,600.031C88.07,619.365,88.07,640.698,88.07,662.031C88.07,683.365,88.07,704.698,88.07,724.031C88.07,743.365,88.07,760.698,88.07,778.031C88.07,795.365,88.07,812.698,88.07,830.031C88.07,847.365,88.07,864.698,88.07,882.031C88.07,899.365,88.07,916.698,88.07,934.031C88.07,951.365,88.07,968.698,88.07,981.531C88.07,994.365,88.07,1002.698,88.07,1011.031C88.07,1019.365,88.07,1027.698,108.902,1038.029C129.733,1048.36,171.396,1060.689,192.228,1066.854L213.059,1073.018" id="L_R2_P1_0" class=" edge-thickness-normal edge-pattern-solid edge-thickness-normal edge-pattern-solid flowchart-link" style="" marker-end="url(#mermaid-svg_flowchart-v2-pointEnd)"/><path d="M351.102,961.031L351.102,965.198C351.102,969.365,351.102,977.698,351.102,986.031C351.102,994.365,351.102,1002.698,351.102,1011.031C351.102,1019.365,351.102,1027.698,344.678,1035.69C338.255,1043.682,325.409,1051.333,318.986,1055.159L312.563,1058.984" id="L_S6_P1_0" class=" edge-thickness-normal edge-pattern-solid edge-thickness-normal edge-pattern-solid flowchart-link" style="" marker-end="url(#mermaid-svg_flowchart-v2-pointEnd)"/><path d="M263.793,1115.031L263.793,1119.198C263.793,1123.365,263.793,1131.698,263.863,1139.448C263.933,1147.198,264.074,1154.365,264.144,1157.949L264.215,1161.532" id="L_P1_P2_0" class=" edge-thickness-normal edge-pattern-solid edge-thickness-normal edge-pattern-solid flowchart-link" style="" marker-end="url(#mermaid-svg_flowchart-v2-pointEnd)"/><path d="M295.188,1285.558L302.95,1296.79C310.712,1308.023,326.235,1330.488,333.996,1347.221C341.758,1363.953,341.758,1374.953,341.758,1380.453L341.758,1385.953" id="L_P2_P3_0" class=" edge-thickness-normal edge-pattern-solid edge-thickness-normal edge-pattern-solid flowchart-link" style="" marker-end="url(#mermaid-svg_flowchart-v2-pointEnd)"/><path d="M219.924,1272.084L200.488,1285.562C181.052,1299.04,142.18,1325.997,122.744,1350.142C103.309,1374.286,103.309,1395.62,103.309,1414.953C103.309,1434.286,103.309,1451.62,103.309,1464.453C103.309,1477.286,103.309,1485.62,134.584,1496.607C165.859,1507.594,228.409,1521.234,259.684,1528.055L290.959,1534.875" id="L_P2_END_0" class=" edge-thickness-normal edge-pattern-solid edge-thickness-normal edge-pattern-solid flowchart-link" style="" marker-end="url(#mermaid-svg_flowchart-v2-pointEnd)"/><path d="M341.758,1443.953L341.758,1448.12C341.758,1452.286,341.758,1460.62,341.758,1468.953C341.758,1477.286,341.758,1485.62,341.758,1493.286C341.758,1500.953,341.758,1507.953,341.758,1511.453L341.758,1514.953" id="L_P3_END_0" class=" edge-thickness-normal edge-pattern-solid edge-thickness-normal edge-pattern-solid flowchart-link" style="" marker-end="url(#mermaid-svg_flowchart-v2-pointEnd)"/><path d="M388.648,1536.739L424.94,1529.608C461.232,1522.477,533.815,1508.215,570.107,1496.918C606.398,1485.62,606.398,1477.286,606.398,1464.453C606.398,1451.62,606.398,1434.286,606.398,1414.953C606.398,1395.62,606.398,1374.286,606.398,1344.876C606.398,1315.466,606.398,1277.979,606.398,1242.492C606.398,1207.005,606.398,1173.518,606.398,1148.108C606.398,1122.698,606.398,1105.365,606.398,1088.031C606.398,1070.698,606.398,1053.365,606.398,1040.531C606.398,1027.698,606.398,1019.365,606.398,1011.031C606.398,1002.698,606.398,994.365,606.398,981.531C606.398,968.698,606.398,951.365,606.398,934.031C606.398,916.698,606.398,899.365,606.398,882.031C606.398,864.698,606.398,847.365,606.398,830.031C606.398,812.698,606.398,795.365,606.398,778.031C606.398,760.698,606.398,743.365,606.398,724.031C606.398,704.698,606.398,683.365,606.398,662.031C606.398,640.698,606.398,619.365,606.398,600.031C606.398,580.698,606.398,563.365,606.398,546.031C606.398,528.698,606.398,511.365,606.398,494.031C606.398,476.698,606.398,459.365,606.398,444.531C606.398,429.698,606.398,417.365,606.398,405.031C606.398,392.698,606.398,380.365,606.398,361.529C606.398,342.693,606.398,317.354,606.398,292.016C606.398,266.677,606.398,241.339,606.398,220.003C606.398,198.667,606.398,181.333,606.398,164C606.398,146.667,606.398,129.333,606.398,116.5C606.398,103.667,606.398,95.333,571.865,84.431C537.332,73.529,468.266,60.058,433.733,53.323L399.199,46.588" id="L_END_START_0" class=" edge-thickness-normal edge-pattern-solid edge-thickness-normal edge-pattern-solid flowchart-link" style="" marker-end="url(#mermaid-svg_flowchart-v2-pointEnd)"/></g><g class="edgeLabels"><g class="edgeLabel"><g class="label" transform="translate(0, 0)"><foreignObject width="0" height="0"><div xmlns="http://www.w3.org/1999/xhtml" class="labelBkg" style="display: table-cell; white-space: nowrap; line-height: 1.5; max-width: 200px; text-align: center;"><span class="edgeLabel "></span></div></foreignObject></g></g><g class="edgeLabel"><g class="label" transform="translate(0, 0)"><foreignObject width="0" height="0"><div xmlns="http://www.w3.org/1999/xhtml" class="labelBkg" style="display: table-cell; white-space: nowrap; line-height: 1.5; max-width: 200px; text-align: center;"><span class="edgeLabel "></span></div></foreignObject></g></g><g class="edgeLabel" transform="translate(351.1015625, 405.03125)"><g class="label" transform="translate(-43.015625, -12)"><foreignObject width="86.03125" height="24"><div xmlns="http://www.w3.org/1999/xhtml" class="labelBkg" style="display: table-cell; white-space: nowrap; line-height: 1.5; max-width: 200px; text-align: center;"><span class="edgeLabel "><p>'wiki'/'docs'?</p></span></div></foreignObject></g></g><g class="edgeLabel"><g class="label" transform="translate(0, 0)"><foreignObject width="0" height="0"><div xmlns="http://www.w3.org/1999/xhtml" class="labelBkg" style="display: table-cell; white-space: nowrap; line-height: 1.5; max-width: 200px; text-align: center;"><span class="edgeLabel "></span></div></foreignObject></g></g><g class="edgeLabel" transform="translate(246.53125, 726.03125)"><g class="label" transform="translate(-16.390625, -12)"><foreignObject width="32.78125" height="24"><div xmlns="http://www.w3.org/1999/xhtml" class="labelBkg" style="display: table-cell; white-space: nowrap; line-height: 1.5; max-width: 200px; text-align: center;"><span class="edgeLabel "><p>'wiki'</p></span></div></foreignObject></g></g><g class="edgeLabel"><g class="label" transform="translate(0, 0)"><foreignObject width="0" height="0"><div xmlns="http://www.w3.org/1999/xhtml" class="labelBkg" style="display: table-cell; white-space: nowrap; line-height: 1.5; max-width: 200px; text-align: center;"><span class="edgeLabel "></span></div></foreignObject></g></g><g class="edgeLabel" transform="translate(455.671875, 662.03125)"><g class="label" transform="translate(-19.953125, -12)"><foreignObject width="39.90625" height="24"><div xmlns="http://www.w3.org/1999/xhtml" class="labelBkg" style="display: table-cell; white-space: nowrap; line-height: 1.5; max-width: 200px; text-align: center;"><span class="edgeLabel "><p>'docs'</p></span></div></foreignObject></g></g><g class="edgeLabel"><g class="label" transform="translate(0, 0)"><foreignObject width="0" height="0"><div xmlns="http://www.w3.org/1999/xhtml" class="labelBkg" style="display: table-cell; white-space: nowrap; line-height: 1.5; max-width: 200px; text-align: center;"><span class="edgeLabel "></span></div></foreignObject></g></g><g class="edgeLabel"><g class="label" transform="translate(0, 0)"><foreignObject width="0" height="0"><div xmlns="http://www.w3.org/1999/xhtml" class="labelBkg" style="display: table-cell; white-space: nowrap; line-height: 1.5; max-width: 200px; text-align: center;"><span class="edgeLabel "></span></div></foreignObject></g></g><g class="edgeLabel" transform="translate(88.0703125, 726.03125)"><g class="label" transform="translate(-22.625, -12)"><foreignObject width="45.25" height="24"><div xmlns="http://www.w3.org/1999/xhtml" class="labelBkg" style="display: table-cell; white-space: nowrap; line-height: 1.5; max-width: 200px; text-align: center;"><span class="edgeLabel "><p>'chat'?</p></span></div></foreignObject></g></g><g class="edgeLabel"><g class="label" transform="translate(0, 0)"><foreignObject width="0" height="0"><div xmlns="http://www.w3.org/1999/xhtml" class="labelBkg" style="display: table-cell; white-space: nowrap; line-height: 1.5; max-width: 200px; text-align: center;"><span class="edgeLabel "></span></div></foreignObject></g></g><g class="edgeLabel"><g class="label" transform="translate(0, 0)"><foreignObject width="0" height="0"><div xmlns="http://www.w3.org/1999/xhtml" class="labelBkg" style="display: table-cell; white-space: nowrap; line-height: 1.5; max-width: 200px; text-align: center;"><span class="edgeLabel "></span></div></foreignObject></g></g><g class="edgeLabel" transform="translate(341.7578125, 1352.953125)"><g class="label" transform="translate(-55.1484375, -12)"><foreignObject width="110.296875" height="24"><div xmlns="http://www.w3.org/1999/xhtml" class="labelBkg" style="display: table-cell; white-space: nowrap; line-height: 1.5; max-width: 200px; text-align: center;"><span class="edgeLabel "><p>&gt;= max length?</p></span></div></foreignObject></g></g><g class="edgeLabel" transform="translate(103.30859375, 1416.953125)"><g class="label" transform="translate(-50.4765625, -12)"><foreignObject width="100.953125" height="24"><div xmlns="http://www.w3.org/1999/xhtml" class="labelBkg" style="display: table-cell; white-space: nowrap; line-height: 1.5; max-width: 200px; text-align: center;"><span class="edgeLabel "><p>&lt; max length?</p></span></div></foreignObject></g></g><g class="edgeLabel"><g class="label" transform="translate(0, 0)"><foreignObject width="0" height="0"><div xmlns="http://www.w3.org/1999/xhtml" class="labelBkg" style="display: table-cell; white-space: nowrap; line-height: 1.5; max-width: 200px; text-align: center;"><span class="edgeLabel "></span></div></foreignObject></g></g><g class="edgeLabel"><g class="label" transform="translate(0, 0)"><foreignObject width="0" height="0"><div xmlns="http://www.w3.org/1999/xhtml" class="labelBkg" style="display: table-cell; white-space: nowrap; line-height: 1.5; max-width: 200px; text-align: center;"><span class="edgeLabel "></span></div></foreignObject></g></g></g><g class="nodes"><g class="node default  " id="flowchart-START-0" transform="translate(339.7890625, 35)"><rect class="basic label-container" style="" x="-55.484375" y="-27" width="110.96875" height="54"/><g class="label" style="" transform="translate(-25.484375, -12)"><rect/><foreignObject width="50.96875" height="24"><div xmlns="http://www.w3.org/1999/xhtml" style="display: table-cell; white-space: nowrap; line-height: 1.5; max-width: 200px; text-align: center;"><span class="nodeLabel "><p>START</p></span></div></foreignObject></g></g><g class="node default  " id="flowchart-R1-1" transform="translate(263.79296875, 164)"><rect class="basic label-container" style="" x="-85.140625" y="-27" width="170.28125" height="54"/><g class="label" style="" transform="translate(-55.140625, -12)"><rect/><foreignObject width="110.28125" height="24"><div xmlns="http://www.w3.org/1999/xhtml" style="display: table-cell; white-space: nowrap; line-height: 1.5; max-width: 200px; text-align: center;"><span class="nodeLabel "><p>Disambiguation</p></span></div></foreignObject></g></g><g class="node default  " id="flowchart-R2-3" transform="translate(263.79296875, 292.015625)"><polygon points="51.015625,0 102.03125,-51.015625 51.015625,-102.03125 0,-51.015625" class="label-container" transform="translate(-51.015625,51.015625)"/><g class="label" style="" transform="translate(-24.015625, -12)"><rect/><foreignObject width="48.03125" height="24"><div xmlns="http://www.w3.org/1999/xhtml" style="display: table-cell; white-space: nowrap; line-height: 1.5; max-width: 200px; text-align: center;"><span class="nodeLabel "><p>Router</p></span></div></foreignObject></g></g><g class="node default  " id="flowchart-S1-6" transform="translate(351.1015625, 494.03125)"><rect class="basic label-container" style="" x="-74.015625" y="-27" width="148.03125" height="54"/><g class="label" style="" transform="translate(-44.015625, -12)"><rect/><foreignObject width="88.03125" height="24"><div xmlns="http://www.w3.org/1999/xhtml" style="display: table-cell; white-space: nowrap; line-height: 1.5; max-width: 200px; text-align: center;"><span class="nodeLabel "><p>Extract topic</p></span></div></foreignObject></g></g><g class="node default  " id="flowchart-S2-8" transform="translate(351.1015625, 598.03125)"><rect class="basic label-container" style="" x="-96.9921875" y="-27" width="193.984375" height="54"/><g class="label" style="" transform="translate(-66.9921875, -12)"><rect/><foreignObject width="133.984375" height="24"><div xmlns="http://www.w3.org/1999/xhtml" style="display: table-cell; white-space: nowrap; line-height: 1.5; max-width: 200px; text-align: center;"><span class="nodeLabel "><p>Write search query</p></span></div></foreignObject></g></g><g class="node default  " id="flowchart-S3-11" transform="translate(246.53125, 830.03125)"><rect class="basic label-container" style="" x="-64.6796875" y="-27" width="129.359375" height="54"/><g class="label" style="" transform="translate(-34.6796875, -12)"><rect/><foreignObject width="69.359375" height="24"><div xmlns="http://www.w3.org/1999/xhtml" style="display: table-cell; white-space: nowrap; line-height: 1.5; max-width: 200px; text-align: center;"><span class="nodeLabel "><p>Wikipedia</p></span></div></foreignObject></g></g><g class="node default  " id="flowchart-S6-13" transform="translate(351.1015625, 934.03125)"><rect class="basic label-container" style="" x="-74.4609375" y="-27" width="148.921875" height="54"/><g class="label" style="" transform="translate(-44.4609375, -12)"><rect/><foreignObject width="88.921875" height="24"><div xmlns="http://www.w3.org/1999/xhtml" style="display: table-cell; white-space: nowrap; line-height: 1.5; max-width: 200px; text-align: center;"><span class="nodeLabel "><p>Rank results</p></span></div></foreignObject></g></g><g class="node default  " id="flowchart-S4-15" transform="translate(455.671875, 726.03125)"><rect class="basic label-container" style="" x="-91.8046875" y="-27" width="183.609375" height="54"/><g class="label" style="" transform="translate(-61.8046875, -12)"><rect/><foreignObject width="123.609375" height="24"><div xmlns="http://www.w3.org/1999/xhtml" style="display: table-cell; white-space: nowrap; line-height: 1.5; max-width: 200px; text-align: center;"><span class="nodeLabel "><p>Sec. source RAG</p></span></div></foreignObject></g></g><g class="node default  " id="flowchart-S5-17" transform="translate(455.671875, 830.03125)"><rect class="basic label-container" style="" x="-94.4609375" y="-27" width="188.921875" height="54"/><g class="label" style="" transform="translate(-64.4609375, -12)"><rect/><foreignObject width="128.921875" height="24"><div xmlns="http://www.w3.org/1999/xhtml" style="display: table-cell; white-space: nowrap; line-height: 1.5; max-width: 200px; text-align: center;"><span class="nodeLabel "><p>Prim. source RAG</p></span></div></foreignObject></g></g><g class="node default  " id="flowchart-P1-22" transform="translate(263.79296875, 1088.03125)"><rect class="basic label-container" style="" x="-46.8984375" y="-27" width="93.796875" height="54"/><g class="label" style="" transform="translate(-16.8984375, -12)"><rect/><foreignObject width="33.796875" height="24"><div xmlns="http://www.w3.org/1999/xhtml" style="display: table-cell; white-space: nowrap; line-height: 1.5; max-width: 200px; text-align: center;"><span class="nodeLabel "><p>Chat</p></span></div></foreignObject></g></g><g class="node default  " id="flowchart-P2-26" transform="translate(263.79296875, 1240.4921875)"><polygon points="75.4609375,0 150.921875,-75.4609375 75.4609375,-150.921875 0,-75.4609375" class="label-container" transform="translate(-75.4609375,75.4609375)"/><g class="label" style="" transform="translate(-48.4609375, -12)"><rect/><foreignObject width="96.921875" height="24"><div xmlns="http://www.w3.org/1999/xhtml" style="display: table-cell; white-space: nowrap; line-height: 1.5; max-width: 200px; text-align: center;"><span class="nodeLabel "><p>Check history</p></span></div></foreignObject></g></g><g class="node default  " id="flowchart-P3-29" transform="translate(341.7578125, 1416.953125)"><rect class="basic label-container" style="" x="-70.453125" y="-27" width="140.90625" height="54"/><g class="label" style="" transform="translate(-40.453125, -12)"><rect/><foreignObject width="80.90625" height="24"><div xmlns="http://www.w3.org/1999/xhtml" style="display: table-cell; white-space: nowrap; line-height: 1.5; max-width: 200px; text-align: center;"><span class="nodeLabel "><p>Summarize</p></span></div></foreignObject></g></g><g class="node default  " id="flowchart-END-32" transform="translate(341.7578125, 1545.953125)"><rect class="basic label-container" style="" x="-46.890625" y="-27" width="93.78125" height="54"/><g class="label" style="" transform="translate(-16.890625, -12)"><rect/><foreignObject width="33.78125" height="24"><div xmlns="http://www.w3.org/1999/xhtml" style="display: table-cell; white-space: nowrap; line-height: 1.5; max-width: 200px; text-align: center;"><span class="nodeLabel "><p>END</p></span></div></foreignObject></g></g></g></g></g></svg>